<?xml version="1.0" encoding="utf-8"?>
<!-- Generator: Adobe Illustrator 19.2.1, SVG Export Plug-In . SVG Version: 6.00 Build 0)  -->
<svg version="1.1" id="图层_1" xmlns="http://www.w3.org/2000/svg" xmlns:xlink="http://www.w3.org/1999/xlink" x="0px" y="0px"
	 viewBox="0 0 250 250" style="enable-background:new 0 0 250 250;" xml:space="preserve">
<style type="text/css">
	.st0{fill:#5A3E27;}
</style>
<path class="st0" d="M119.4,121.7l0.7,9.3l-12.9-4.3l-6.5-20.8c0,0,10.8,0.7,18-3.6c5.7-3.6,8.6-12.2,8.6-12.2s0.7-5,0-7.9
	c-2.9-10.8-12.9-11.5-12.9-11.5s-2.2-12.9-10.8-19.4c-7.2-5.7-20.8-5-20.8-5s0-14.4-6.5-25.9C69.8,8.9,56.2,1,56.2,1
	S50.4,13.9,54,26.9c3.6,12.9,15.8,27.3,15.8,27.3s-5,9.3-6.5,19.4c-0.7,9.3,2.9,20.1,2.9,20.1s-2.9,13.7-7.9,28
	c-3.6,12.2-9.3,24.4-11.5,36.6c-5,20.8-2.9,34.5-2.9,34.5s-16.5-2.2-11.5,12.9c5.7,16.5,22.3,9.3,22.3,9.3s5.7,6.5,12.9,7.9
	c9.3,2.2,22.3-1.4,22.3-1.4s-4.3,5.7-3.6,7.2c0.7,2.2,3.6,3.6,3.6,3.6l30.2,0.7c0,0,0.7-1.4-1.4-3.6c-2.2-2.9-6.5-5.7-6.5-5.7
	l14.4-18c0,0-0.7,12.9,3.6,20.8c2.9,5,10.8,6.5,10.8,6.5s48.1,1.4,53.2,1.4c5.7-1.4,10.8-4.3,12.2-10.1c1.4-7.2,1.4-15.1,1.4-15.1
	s16.5-12.2,28-30.2c10.8-27.3,3.6-39.5-5-43.8c-8.6-4.3-20.1,1.4-20.1,1.4v-14.4L119.4,121.7z"/>
</svg>
