<?xml version="1.0" encoding="utf-8"?>
<!-- Generator: Adobe Illustrator 17.1.0, SVG Export Plug-In . SVG Version: 6.00 Build 0)  -->
<!DOCTYPE svg PUBLIC "-//W3C//DTD SVG 1.1//EN" "http://www.w3.org/Graphics/SVG/1.1/DTD/svg11.dtd">
<svg version="1.1" id="rabbit" xmlns="http://www.w3.org/2000/svg" xmlns:xlink="http://www.w3.org/1999/xlink" x="0px" y="0px"
	 viewBox="0 0 55 55" enable-background="new 0 0 55 55" xml:space="preserve">
<path fill-rule="evenodd" clip-rule="evenodd" fill="#372020" d="M24.9,27.8l0.1,1.3l-1.8-0.6l-0.9-2.9c0,0,1.5,0.1,2.5-0.5
	c0.8-0.5,1.2-1.7,1.2-1.7s0.1-0.7,0-1.1c-0.4-1.5-1.8-1.6-1.8-1.6s-0.3-1.8-1.5-2.7c-1-0.8-2.9-0.7-2.9-0.7s0-2-0.9-3.6
	c-0.9-1.6-2.8-2.7-2.8-2.7s-0.8,1.8-0.3,3.6c0.5,1.8,2.2,3.8,2.2,3.8s-0.7,1.3-0.9,2.7c-0.1,1.3,0.4,2.8,0.4,2.8s-0.4,1.9-1.1,3.9
	c-0.5,1.7-1.3,3.4-1.6,5.1c-0.7,2.9-0.4,4.8-0.4,4.8s-2.3-0.3-1.6,1.8c0.8,2.3,3.1,1.3,3.1,1.3s0.8,0.9,1.8,1.1
	c1.3,0.3,3.1-0.2,3.1-0.2s-0.6,0.8-0.5,1c0.1,0.3,0.5,0.5,0.5,0.5l4.2,0.1c0,0,0.1-0.2-0.2-0.5c-0.3-0.4-0.9-0.8-0.9-0.8l2-2.5
	c0,0-0.1,1.8,0.5,2.9c0.4,0.7,1.5,0.9,1.5,0.9s6.7,0.2,7.4,0.2c0.8-0.2,1.5-0.6,1.7-1.4c0.2-1,0.2-2.1,0.2-2.1s2.3-1.7,3.9-4.2
	c1.5-3.8,0.5-5.5-0.7-6.1c-1.2-0.6-2.8,0.2-2.8,0.2v-2L24.9,27.8z"/>
<path fill-rule="evenodd" clip-rule="evenodd" fill="#372020" d="M0,0v55h55V0H0z M27.5,50.8c-12.9,0-23.3-10.4-23.3-23.3
	S14.6,4.2,27.5,4.2s23.3,10.4,23.3,23.3S40.4,50.8,27.5,50.8z"/>
</svg>
